PathFileType	4	(X/Y/Z)	64_2_79_p0_0-790_filt_butterworth.trc
DataRate	CameraRate	NumFrames	NumMarkers	Units	OrigDataRate	OrigDataStartFrame	OrigNumFrames
60.0	60.0	4	27	m	60.0	0	790
Frame#	Time	RHip			RKnee			RAnkle			RBigToe			RSmallToe			RHeel			LHip			LKnee			LAnkle			LBigToe			LSmallToe			LHeel			Neck			Head			Nose			RShoulder			RElbow			RWrist			RThumb			RIndex			RPinky			LShoulder			LElbow			LWrist			LThumb			LIndex			LPinky			
		X1	Y1	Z1	X2	Y2	Z2	X3	Y3	Z3	X4	Y4	Z4	X5	Y5	Z5	X6	Y6	Z6	X7	Y7	Z7	X8	Y8	Z8	X9	Y9	Z9	X10	Y10	Z10	X11	Y11	Z11	X12	Y12	Z12	X13	Y13	Z13	X14	Y14	Z14	X15	Y15	Z15	X16	Y16	Z16	X17	Y17	Z17	X18	Y18	Z18	X19	Y19	Z19	X20	Y20	Z20	X21	Y21	Z21	X22	Y22	Z22	X23	Y23	Z23	X24	Y24	Z24	X25	Y25	Z25	X26	Y26	Z26	X27	Y27	Z27	
0	0.0	0.3108335029524978	0.7628407301097601	0.5550540412575719	0.2867344018305284	0.9513904039964818	0.9572124063939278	0.27045429558989664	1.2038306716248133	1.3159590340935212	0.27942531875251997	1.0856218007205374	1.41495704057626	0.34308189154937485	1.0639237113359514	1.3968805044525143	0.2206256826352351	1.3249788205934614	1.3423431387759166	0.09836154143418732	0.7042139566941668	0.5704394618770638	0.082830988903658	0.9272350783654348	0.9689277972172119	0.07996154904449011	1.1935435293919485	1.349708914246809	0.1343602975187817	1.018176195310337	1.42344619621268	0.05667691018464957	1.0816965086958168	1.4122616535825478	0.0756744129341176	1.2608971384387933	1.3625936036602107	0.22263176565660497	0.47114904339750063	0.16082599789747948	0.26402605917787064	0.24541964339988048	0.023674035229524732	0.2679575051188718	0.2781466135284522	0.1541376356347571	0.3871412946947933	0.49757638964661094	0.23196288794808434	0.41540123140615737	0.7136116189549795	0.40987223001214135	0.4630213297155408	0.6451126407726248	0.6475794714385676	0.4346562415174509	0.5915628149327684	0.7578068827638765	0.4418390654551427	0.5932422619211298	0.7838978298813172	0.4658303359975817	0.6953393697991149	0.7627056137087201	0.07628770065750795	0.4907342809765802	0.2279040624692173	-0.002424646261932695	0.5770346689935092	0.4240127458890391	0.011210563251087421	0.5798128365675627	0.6561056861460763	0.06653043666097204	0.5357274330952315	0.7623750744436644	0.043711207973602666	0.5112096037443231	0.7791026515469632	-0.013947045195042385	0.5757578320627057	0.762258862896083
1	0.0166666666666666	0.31024912385806164	0.7626187914264773	0.5546679016332458	0.2866859542736238	0.9515032012888018	0.9573762739310845	0.27009169215311474	1.201681857418164	1.3145414124544168	0.27944081872114734	1.08317482778905	1.415094495412756	0.3454130317666154	1.0652353874787415	1.3962985790115607	0.21979857904979586	1.3241469252233844	1.3427739035612067	0.09836318714521942	0.7035733031002093	0.5696211377457798	0.08272473956850915	0.9250337295050948	0.9667168289362915	0.07962377112852219	1.19107408871711	1.34690170179867	0.13413927218448052	1.019136665177818	1.423203727680979	0.0565089717643337	1.081805688505369	1.412315317447281	0.08038011446928904	1.259302519131142	1.3617724349950655	0.22286493983926053	0.4671169924128742	0.16258584591968922	0.2685893015389849	0.24055415548701292	0.02748536182341736	0.26807129063813	0.27804959907300114	0.15417129389173143	0.38583903927811203	0.4982961258745051	0.23396910361482637	0.4152751562060234	0.7142656169163873	0.41115772553544516	0.45867432559183086	0.6522993277139083	0.6462625758705701	0.434590727159923	0.5918936515478835	0.7588361052062046	0.44197420808471366	0.5930103133484677	0.7840427018027312	0.46503435808007415	0.6981468876483117	0.76583616733418	0.08071286088630303	0.4852956319124733	0.2299772830205768	-0.0028015263058408933	0.5768200840353304	0.4245513018333042	0.01164089433746639	0.5805821729437839	0.6584905565560607	0.06751418983239019	0.5263646998287816	0.7623284311716478	0.04472569209743301	0.5103771831233104	0.779258207272631	-0.013820376459646934	0.5767525155027932	0.7640422100184296
2	0.0333333333333333	0.30919578033472495	0.7618678461492402	0.5539683471486178	0.28661799874088206	0.9530322531915048	0.9573653927178424	0.2700537276140233	1.2000840390323246	1.3131493487618753	0.27925545997210266	1.0836881584547187	1.4150414243797262	0.3468203391816237	1.0659742046912188	1.3959447005229904	0.21995850358014649	1.323771660683806	1.3421685335908444	0.09837139636420199	0.7032802945224724	0.5695620662698947	0.0826476609873791	0.9236941649341128	0.965397506149414	0.07944831575549051	1.1896474026295498	1.3453072476305905	0.1339781595686539	1.0199377570456063	1.4231107206780396	0.05642853720415268	1.0817719265455636	1.4123450386906267	0.08329113290530177	1.2580202793305815	1.3612756001252455	0.22306487097314173	0.46422534542351535	0.164329548080971	0.2713336098346494	0.23769713624782499	0.02992158965404574	0.26814895542611417	0.2779868999286759	0.15418867871264377	0.3846124217118983	0.4984046194261643	0.23532998517456252	0.4152534974776396	0.7144171658871721	0.41213787883652736	0.45604760903663466	0.656566844249978	0.6454731463116824	0.43452111832839957	0.5921662989692944	0.7596930334297968	0.44204943446708	0.5928548053945997	0.7841366061967608	0.4645641309575469	0.699227436125165	0.7672796411842311	0.08185191627934796	0.48384555467712653	0.2305180939476275	-0.003703112581108066	0.5764629246122844	0.42569950246049615	0.011921605433650865	0.5810806724776352	0.6599609826750458	0.0681780756315665	0.5210615869323413	0.7623413975363947	0.047429747405196704	0.5086561853272598	0.7794687895762248	-0.013768690739361713	0.5774526685905873	0.7651239968331447
3	0.05	0.3078481583440131	0.7607788056212946	0.5530345509972863	0.28650470094692815	0.956791542133687	0.9570484381436039	0.27025157379279435	1.1994204279030123	1.312127652969091	0.2790304027742859	1.0857793230467716	1.4145360234090716	0.3472413146708071	1.0661276751007533	1.3958364785584354	0.22078091130922534	1.323386536630487	1.3407648337247517	0.09829927521013111	0.7029444647932087	0.5701113298318903	0.08260174216911086	0.9232853811724411	0.9650334023672188	0.07945948691347066	1.1896417463283673	1.3453028367425257	0.1339239284871795	1.0204072075857324	1.4230458067702703	0.05644275282915903	1.0816112745499318	1.4123371303051566	0.08425912077045487	1.2572269809284575	1.3611266774999486	0.22316007353114878	0.46358702780698	0.16570909475627651	0.2721108469164305	0.23707097936773974	0.030979726581669538	0.26819024036411887	0.2779643903856064	0.1541933943585413	0.38377230984749067	0.4980823483868946	0.23588663839068635	0.41530096583039217	0.7138482144270457	0.4127075907449899	0.45525060422064334	0.6576484325854253	0.6452668749261108	0.43442511682192947	0.5923795328136364	0.7605013479450544	0.44206010783202154	0.5927842521621116	0.7841762182900591	0.46447195972303834	0.6985450365851142	0.767019748934397	0.07988736223628908	0.4861619674726987	0.22962621882435424	-0.004975865237797224	0.57602984273987	0.42728755558359444	0.012004172283083793	0.5813413413868684	0.6604232507124749	0.06844314110913918	0.520851619975022	0.7620988157327349	0.0515681844201716	0.5065624790521641	0.7796900459552423	-0.01352738823239033	0.5775173031868167	0.7654881699438958
